<svg width="31" height="30" viewBox="0 0 31 30" fill="none" xmlns="http://www.w3.org/2000/svg">
<path d="M7.5 4.5C6.11929 4.5 5 5.61929 5 7V23C5 24.3807 6.11929 25.5 7.5 25.5H23.5C24.8807 25.5 26 24.3807 26 23V7C26 5.61929 24.8807 4.5 23.5 4.5H7.5Z" fill="white" stroke="white"/>
<rect x="6" y="5.5" width="19" height="19" rx="1.5" fill="white" stroke="#1C232E"/>
<path d="M10.2102 8.5968H9.27289V11.7846H8.48553V8.5968H7.5V7.96144H10.2959L10.2102 8.5968Z" fill="#1C232E"/>
<path d="M11.8877 10.2874H11.486V11.7846H10.6986V7.96144H11.8555C12.3519 7.96144 12.725 8.05721 12.975 8.24874C13.2249 8.43658 13.3499 8.72203 13.3499 9.10509C13.3499 9.35555 13.2892 9.56181 13.1678 9.72388C13.05 9.88594 12.8661 10.0241 12.6161 10.1382L13.5749 11.7846H12.6804L11.8877 10.2874ZM11.486 9.71283H11.8984C12.1091 9.71283 12.268 9.66494 12.3751 9.56918C12.4822 9.46973 12.5358 9.31504 12.5358 9.10509C12.5358 8.90988 12.4786 8.76807 12.3644 8.67968C12.2537 8.5876 12.0787 8.54156 11.8395 8.54156H11.486V9.71283Z" fill="#1C232E"/>
<path d="M16.716 10.525C16.716 10.7865 16.6624 11.0185 16.5553 11.2211C16.4481 11.4237 16.2875 11.5839 16.0732 11.7018C15.8625 11.816 15.6054 11.873 15.3019 11.873C14.8449 11.873 14.4949 11.7515 14.2521 11.5084C14.0129 11.2616 13.8933 10.9338 13.8933 10.525V7.96144H14.6806V10.4863C14.6806 10.7441 14.7306 10.9375 14.8306 11.0664C14.9306 11.1916 15.0877 11.2543 15.3019 11.2543C15.5162 11.2543 15.6733 11.1916 15.7733 11.0664C15.8768 10.9375 15.9286 10.7441 15.9286 10.4863V7.96144H16.716V10.525Z" fill="#1C232E"/>
<path d="M18.9136 7.87305C19.1457 7.87305 19.3474 7.90804 19.5188 7.97802C19.6902 8.04432 19.858 8.14745 20.0223 8.28741L19.6313 8.75702C19.4171 8.57655 19.1921 8.48631 18.9564 8.48631C18.6922 8.48631 18.4815 8.59865 18.3244 8.82332C18.1709 9.04432 18.0941 9.39238 18.0941 9.86752C18.0941 10.3316 18.1709 10.676 18.3244 10.9007C18.4815 11.1217 18.694 11.2322 18.9618 11.2322C19.101 11.2322 19.2278 11.2064 19.3421 11.1548C19.4563 11.0996 19.576 11.0222 19.7009 10.9228L20.0652 11.3924C19.933 11.5323 19.7688 11.6484 19.5724 11.7405C19.3796 11.8288 19.1653 11.873 18.9296 11.873C18.5976 11.873 18.3065 11.7957 18.0566 11.641C17.8066 11.4863 17.612 11.2598 17.4728 10.9614C17.3335 10.6594 17.2639 10.2948 17.2639 9.86752C17.2639 9.45132 17.3353 9.09404 17.4781 8.7957C17.621 8.49367 17.8173 8.26531 18.0673 8.11062C18.3173 7.95224 18.5993 7.87305 18.9136 7.87305Z" fill="#1C232E"/>
<path d="M21.2986 11.7846H20.5113V7.96144H21.2986V11.7846ZM22.1663 9.6852L23.5 11.7846H22.5787L21.3308 9.74597L22.5627 7.96144H23.4036L22.1663 9.6852Z" fill="#1C232E"/>
</svg>
